<?xml version="1.0" encoding="utf-8"?>
<!-- Generator: Adobe Illustrator 21.0.0, SVG Export Plug-In . SVG Version: 6.00 Build 0)  -->
<svg version="1.1" id="Layer_1" xmlns="http://www.w3.org/2000/svg" xmlns:xlink="http://www.w3.org/1999/xlink" x="0px" y="0px"
	 viewBox="0 0 1000 1000" style="enable-background:new 0 0 1000 1000;" xml:space="preserve">
<style type="text/css">
	.st0{opacity:0.59;fill:#EA0000;}
	.st1{opacity:0.5;fill:#EA0000;}
	.st2{opacity:0.5;fill:none;stroke:#EA0000;stroke-width:4;stroke-linejoin:bevel;stroke-miterlimit:10;}
	.st3{fill:#EA0000;}
	.st4{opacity:0.8;fill:none;stroke:#EA0000;stroke-width:6;stroke-miterlimit:10;}
</style>
<path d="M521.7,759.7C521.7,759.7,521.7,759.7,521.7,759.7c-1.1,2-2.4,3.8-3.9,5.5c-4.9,6-9.5,12.4-13.8,19
	c-1.4,2.2-2.8,4.5-4.2,6.8c-0.7,0.8-1.2,1.8-1.6,2.7c-0.1,0.1-0.1,0.2-0.2,0.3c-0.7,1.2-1.3,2.3-2,3.5c-0.2-0.1-0.1,0,0,0
	c-12.7,23-20.9,47.3-24.7,71.9c-0.4-15.4-2.4-30.7-5.9-45.6c-5.4-22.6-14.3-44.2-26.5-64.1c-2.9-4.8-6-9.4-9.4-14
	c-5.5-7.6-11.5-14.8-18.1-21.7c-9.4-9.9-17.4-21.1-23.1-33.5c-0.2-0.5-0.5-1-0.7-1.5c-0.2,4.4-0.3,8.8-0.3,13.2
	c0.3,28.3,6.1,56.2,17,82.2c5.1,12.2,11.4,24.1,18.7,35.3c3.4,8.2,6.4,16.7,8.8,25.3c7.9,27.9,10.2,57.4,6.5,86.6
	c-2.2,17.3-6.5,34.6-13,51.4c1.5-2.9,3.1-5.7,4.7-8.6c9.8-16.9,21.4-32.1,34.4-45.5c6.9-6.7,16.3-16.9,25.5-25.7
	c4.5-3.3,8.8-6.8,13-10.5c0.1,0.1,0.3,0.1,0.4,0c0.3-0.1,0.5-0.3,0.8-0.7c0.1-0.2,0.3-0.4,0.4-0.6c0.7-0.7,1.7-1.7,2.4-2.4l0,0
	c0,0,0,0,0,0c16.1-14.7,30.3-32.2,41.8-52.1c4.1-7,7.7-14.2,10.9-21.5c14.4-32.7,20.2-67.5,18-101.4c-2.1-33.8-12.1-66.8-29.2-96.2
	C555.7,665.2,547.4,715.1,521.7,759.7z"/>
<path d="M502.2,568.8C502.2,568.9,502.2,568.9,502.2,568.8c-0.7,1.7-1.5,3.3-2.4,4.8c-3.2,5.4-6.1,10.9-8.7,16.7
	c-0.9,1.9-1.7,3.9-2.5,5.8c-0.5,0.7-0.7,1.5-1,2.3c0,0.1-0.1,0.2-0.1,0.2c-0.4,1-0.8,2-1.2,3c-0.2,0-0.1,0,0,0
	c-7.4,19.7-10.9,39.9-11.1,59.8c-2.1-12.1-5.5-24-10-35.4c-6.9-17.2-16.5-33.3-28.5-47.6c-2.9-3.4-5.9-6.7-9-9.9
	c-5.2-5.3-10.9-10.4-16.8-15.1c-8.6-6.7-16.2-14.6-22.2-23.8c-0.2-0.4-0.5-0.7-0.7-1.1c0.3,3.5,0.8,7,1.3,10.4
	c3.6,22.3,11.4,43.7,23.1,63c5.5,9.1,11.8,17.7,19,25.7c3.7,6.1,7,12.5,9.9,19c9.5,21.2,14.8,44.2,15.3,67.8
	c0.3,14-1.1,28.1-4.3,42.2c0.9-2.4,1.8-4.9,2.7-7.3c5.7-14.6,13.2-27.9,21.9-40.1c4.7-6.1,10.9-15.3,17.2-23.3
	c3.1-3.1,6.2-6.4,9.1-9.8c0.1,0,0.2,0,0.3,0c0.2-0.1,0.4-0.3,0.6-0.6c0.1-0.2,0.2-0.3,0.3-0.5c0.4-0.6,1.2-1.6,1.6-2.2l0,0
	c0,0,0,0,0,0c11-13.6,20.2-29,27-46.1c2.4-6,4.4-12.1,6.1-18.3c7.6-27.6,8-55.8,2.3-82.4c-5.7-26.5-17.5-51.5-34.4-72.7
	C518,490.1,517.3,530.5,502.2,568.8z"/>
<path d="M475.5,402.4C475.5,402.4,475.5,402.4,475.5,402.4c-0.7,1.4-1.5,2.6-2.3,3.8c-3,4.2-5.8,8.6-8.3,13.1
	c-0.9,1.5-1.7,3.1-2.5,4.6c-0.4,0.6-0.7,1.2-0.9,1.9c0,0.1-0.1,0.1-0.1,0.2c-0.4,0.8-0.8,1.6-1.2,2.4c-0.2-0.1-0.1,0,0,0
	c-7.4,15.7-11.8,32.1-13.2,48.5c-0.9-10.1-2.9-20.1-5.8-29.8c-4.5-14.7-11.3-28.6-20.2-41.2c-2.1-3-4.4-6-6.8-8.8
	c-4-4.8-8.2-9.3-12.8-13.6c-6.6-6.1-12.4-13.2-16.7-21.1c-0.2-0.3-0.3-0.6-0.5-0.9c0,2.9,0.2,5.8,0.4,8.7
	c1.4,18.6,6.4,36.8,14.7,53.5c3.9,7.9,8.5,15.4,13.8,22.5c2.6,5.3,4.9,10.7,6.9,16.3c6.4,18.1,9.2,37.4,8,56.8
	c-0.7,11.5-2.8,23.1-6.4,34.4c0.9-2,1.8-3.9,2.7-5.9c5.7-11.6,12.7-22.1,20.8-31.5c4.3-4.7,10-11.8,15.7-18c2.8-2.4,5.5-4.9,8.1-7.4
	c0.1,0,0.2,0,0.3,0c0.2-0.1,0.3-0.2,0.5-0.5c0.1-0.1,0.2-0.3,0.3-0.4c0.4-0.5,1.1-1.2,1.5-1.7l0,0c0,0,0,0,0,0
	c10-10.4,18.6-22.5,25.4-36.1c2.4-4.8,4.5-9.7,6.3-14.6c8.1-22.2,10.4-45.4,7.6-67.7c-2.9-22.2-10.8-43.6-23.4-62.2
	C493.9,338.6,490.6,371.9,475.5,402.4z"/>
<path d="M454.5,277.4C454.5,277.4,454.5,277.4,454.5,277.4c-0.4,1.1-0.8,2.2-1.4,3.3c-1.9,3.7-3.5,7.5-5,11.4c-0.5,1.3-1,2.6-1.4,4
	c-0.3,0.5-0.4,1-0.5,1.6c0,0.1,0,0.1-0.1,0.2c-0.2,0.7-0.4,1.4-0.6,2c-0.1,0-0.1,0,0,0c-4,13.3-5.5,26.8-4.8,39.9
	c-1.9-7.9-4.6-15.6-8.1-22.9c-5.3-11.1-12.3-21.3-20.8-30.2c-2-2.1-4.2-4.2-6.4-6.2c-3.7-3.3-7.6-6.4-11.8-9.2
	c-6-4.1-11.3-9-15.7-14.7c-0.2-0.2-0.3-0.5-0.5-0.7c0.4,2.3,0.8,4.6,1.3,6.8c3.3,14.6,9.4,28.4,17.9,40.6c4,5.8,8.6,11.2,13.6,16.2
	c2.7,3.9,5.1,7.9,7.3,12.1c7.2,13.6,11.6,28.5,13,44.1c0.8,9.2,0.5,18.6-1,28c0.5-1.7,1-3.3,1.5-5c3.2-9.8,7.5-19,12.7-27.4
	c2.8-4.2,6.6-10.5,10.3-16.1c1.9-2.2,3.8-4.5,5.6-6.8c0.1,0,0.1,0,0.2,0c0.1-0.1,0.2-0.2,0.3-0.4c0.1-0.1,0.1-0.2,0.2-0.3
	c0.3-0.4,0.7-1.1,1-1.5l0,0c0,0,0,0,0,0c6.7-9.4,12.1-20,15.8-31.6c1.3-4.1,2.4-8.2,3.2-12.3c3.8-18.5,2.9-37.1-2-54.4
	c-4.9-17.3-13.7-33.2-25.8-46.5C461.6,224.7,462.9,251.4,454.5,277.4z"/>
<path d="M431.9,168.9C431.9,168.9,431.9,168.9,431.9,168.9c-0.4,0.9-0.9,1.7-1.5,2.5c-1.9,2.7-3.7,5.5-5.4,8.5c-0.6,1-1.1,2-1.6,3
	c-0.3,0.4-0.5,0.8-0.6,1.2c0,0,0,0.1-0.1,0.1c-0.3,0.5-0.5,1-0.8,1.6c-0.1,0-0.1,0,0,0c-4.8,10.1-7.6,20.7-8.5,31.3
	c-0.6-6.5-1.8-13-3.8-19.2c-2.9-9.5-7.3-18.4-13-26.6c-1.4-1.9-2.8-3.8-4.4-5.7c-2.6-3.1-5.3-6-8.3-8.7c-4.3-4-8-8.5-10.8-13.6
	c-0.1-0.2-0.2-0.4-0.3-0.6c0,1.9,0.1,3.7,0.3,5.6c0.9,12,4.1,23.7,9.5,34.5c2.5,5.1,5.5,9.9,8.9,14.5c1.7,3.4,3.2,6.9,4.4,10.5
	c4.1,11.7,5.9,24.1,5.1,36.7c-0.5,7.4-1.8,14.9-4.1,22.2c0.6-1.3,1.2-2.5,1.8-3.8c3.7-7.5,8.2-14.3,13.4-20.3
	c2.8-3,6.5-7.6,10.2-11.6c1.8-1.5,3.6-3.1,5.2-4.8c0.1,0,0.1,0,0.2,0c0.1,0,0.2-0.2,0.3-0.3c0.1-0.1,0.1-0.2,0.2-0.3
	c0.3-0.3,0.7-0.8,0.9-1.1l0,0c0,0,0,0,0,0c6.5-6.7,12-14.5,16.4-23.3c1.5-3.1,2.9-6.3,4-9.4c5.2-14.3,6.7-29.3,4.9-43.7
	c-1.8-14.3-7-28.1-15.1-40.2C443.7,127.7,441.6,149.2,431.9,168.9z"/>
<path d="M418.3,88.2C418.3,88.2,418.3,88.2,418.3,88.2c-0.2,0.7-0.5,1.4-0.9,2.1c-1.2,2.4-2.3,4.8-3.3,7.3c-0.3,0.8-0.6,1.7-0.9,2.6
	c-0.2,0.3-0.3,0.7-0.3,1c0,0,0,0.1,0,0.1c-0.1,0.4-0.3,0.9-0.4,1.3c-0.1,0,0,0,0,0c-2.6,8.6-3.6,17.3-3.1,25.8
	c-1.2-5.1-3-10.1-5.2-14.8c-3.4-7.1-7.9-13.7-13.4-19.5c-1.3-1.4-2.7-2.7-4.1-4c-2.4-2.1-4.9-4.1-7.6-5.9c-3.8-2.6-7.3-5.8-10.1-9.5
	c-0.1-0.1-0.2-0.3-0.3-0.4c0.2,1.5,0.5,2.9,0.9,4.4c2.1,9.4,6.1,18.3,11.5,26.2c2.6,3.7,5.5,7.2,8.8,10.4c1.7,2.5,3.3,5.1,4.7,7.8
	c4.6,8.7,7.5,18.4,8.4,28.4c0.5,5.9,0.3,12-0.7,18.1c0.3-1.1,0.6-2.1,1-3.2c2-6.3,4.8-12.3,8.2-17.7c1.8-2.7,4.2-6.8,6.7-10.4
	c1.2-1.4,2.4-2.9,3.6-4.4c0,0,0.1,0,0.1,0c0.1,0,0.2-0.1,0.2-0.3c0-0.1,0.1-0.1,0.1-0.2c0.2-0.3,0.4-0.7,0.6-1l0,0c0,0,0,0,0,0
	c4.3-6.1,7.8-12.9,10.2-20.4c0.9-2.6,1.5-5.3,2.1-7.9c2.5-11.9,1.9-24-1.3-35.1c-3.1-11.1-8.8-21.4-16.6-30
	C422.9,54.2,423.7,71.5,418.3,88.2z"/>
</svg>
