<?xml version="1.0" encoding="utf-8"?>
<!-- Generator: Adobe Illustrator 21.0.0, SVG Export Plug-In . SVG Version: 6.00 Build 0)  -->
<svg version="1.1" id="Layer_1" xmlns="http://www.w3.org/2000/svg" xmlns:xlink="http://www.w3.org/1999/xlink" x="0px" y="0px"
	 viewBox="0 0 1000 1000" style="width: 100%; fill: white; " xml:space="preserve">
<style type="text/css">
	.st0{opacity:0.59;fill:#EA0000;}
	.st1{opacity:0.5;fill:#EA0000;}
	.st2{opacity:0.5;fill:none;stroke:#EA0000;stroke-width:4;stroke-linejoin:bevel;stroke-miterlimit:10;}
	.st3{fill:#EA0000;}
	.st4{opacity:0.8;fill:none;stroke:#EA0000;stroke-width:6;stroke-miterlimit:10;}
</style>
<path d="M551.2,847.5C551.1,847.5,551.1,847.5,551.2,847.5c-4.9,0-9.7-0.5-14.5-1.2c-16.6-2.6-33.4-4.4-50.5-5.3
	c-5.7-0.3-11.4-0.5-17.2-0.6c-2.3-0.4-4.6-0.3-6.8-0.1c-0.2,0-0.5,0-0.7,0c-2.9,0-5.8,0-8.7,0.1c-0.1-0.5-0.1-0.3,0,0
	c-56.7,1-110.9,12.1-160.9,31.4c28.4-17.3,54.8-37.5,78.7-60.2c36.3-34.3,67.2-74.4,91.1-118.7c5.7-10.6,11.1-21.4,16-32.5
	c8.2-18.5,15.3-37.5,21.1-57.1c8.3-28.2,20.6-55.2,37.6-79.3c0.7-0.9,1.3-1.9,2-2.8c-8.4,4.3-16.7,8.9-24.8,13.7
	c-52.4,31.1-98.3,72-135.1,120.3c-17.3,22.8-32.7,47.2-45.7,73C321,743.5,308.4,758,295,771.8c-43.6,44.8-96.1,80.9-154.7,105.5
	c-34.7,14.6-71.6,25.2-110,31.1c7-0.3,14-0.4,21.1-0.4c42.2,0,83.1,5.3,122.2,15.2c20,5.8,49.1,12.2,75.5,20
	c11,4.7,22.2,9.1,33.5,13c0,0.3,0.1,0.6,0.3,0.8c0.4,0.4,1.2,0.7,2.1,0.8c0.5,0.1,1,0.1,1.5,0.2c2,0.5,5,1.4,7,1.9l0.1,0
	c0,0,0,0,0,0c44.9,14.2,92.7,21.9,142.4,21.9c17.5,0,34.8-1,51.8-2.8c76.6-8.3,147.8-35.1,208.8-75.8
	c60.8-40.5,111.7-94.7,148.2-158.3C764.3,809.1,662.2,847.5,551.2,847.5z"/>
<path d="M779.5,638.8C779.4,638.8,779.4,638.8,779.5,638.8c-3.2,1.2-6.5,2-9.9,2.6c-11.5,2.2-23,5-34.5,8.5
	c-3.8,1.2-7.6,2.4-11.4,3.7c-1.6,0.3-3.1,0.9-4.5,1.6c-0.2,0.1-0.3,0.1-0.5,0.2c-1.9,0.7-3.8,1.4-5.7,2.1c-0.2-0.3-0.1-0.2,0,0
	c-37,14.2-70.1,34.4-98.4,59.1c14.5-18.2,27.1-37.7,37.5-58.4c15.7-31.3,26.5-65,31.7-99.9c1.2-8.3,2.2-16.7,2.8-25.2
	c1-14.1,1.1-28.3,0.2-42.6c-1.2-20.6,0.4-41.2,5.8-61.1c0.2-0.8,0.4-1.6,0.6-2.3c-4.5,4.8-8.9,9.8-13.1,14.9
	c-27.1,32.9-47.6,70.8-60.2,111.4c-6,19.1-10.3,38.9-12.7,58.9c-4.1,12.9-8.9,25.4-14.4,37.7c-18,39.9-44,76.2-76.7,106.3
	c-19.4,17.9-41.1,33.6-65,46.7c4.5-1.9,9.1-3.6,13.8-5.3c27.8-10.1,55.9-16.3,84-19.1c14.5-1,35.2-3.6,54.4-4.8
	c8.4,0.5,16.8,0.7,25.2,0.6c0.1,0.2,0.2,0.3,0.4,0.4c0.4,0.2,0.9,0.1,1.6,0c0.3-0.1,0.7-0.2,1-0.3c1.4-0.1,3.6-0.3,5.1-0.4l0.1,0
	c0,0,0,0,0,0c32.9-1.3,66.3-7.7,98.9-19.5c11.5-4.2,22.7-8.9,33.4-14.2c48.5-23.8,88.9-58.3,119.4-99.7
	c30.4-41.2,50.9-89,59.8-139.5C910.6,562.7,852.5,612.3,779.5,638.8z"/>
<path d="M898,422.4C898,422.4,898,422.4,898,422.4c-1.9,1.5-3.9,2.8-5.9,3.9c-7.2,4-14.2,8.5-21,13.3c-2.3,1.6-4.5,3.3-6.8,5
	c-1,0.5-1.8,1.3-2.6,2c-0.1,0.1-0.2,0.1-0.3,0.2c-1.1,0.9-2.2,1.8-3.3,2.7c-0.2-0.2-0.1-0.1,0,0c-21.4,17.7-38.9,38.4-52.2,61.1
	c5.6-15.3,9.6-31.1,11.9-47.1c3.5-24.2,3.1-49-1.2-73.3c-1-5.8-2.3-11.6-3.8-17.3c-2.5-9.6-5.6-19-9.3-28.3
	c-5.4-13.4-8.9-27.5-9.7-41.9c0-0.6-0.1-1.1-0.1-1.7c-1.9,4.2-3.7,8.5-5.3,12.8c-10.7,27.9-15.8,57.6-15.2,87.3
	c0.3,14,1.8,28.1,4.7,41.9c0.2,9.4-0.2,18.9-1.2,28.2c-3.1,30.5-12.2,60.3-27.2,87.6c-8.9,16.2-19.8,31.5-32.7,45.4
	c2.6-2.2,5.3-4.4,8-6.6c16.2-12.9,33.5-23.3,51.5-31.4c9.4-3.9,22.6-10.3,35-15.3c5.7-1.5,11.3-3.3,16.8-5.2
	c0.1,0.1,0.2,0.2,0.4,0.2c0.3,0,0.7-0.1,1.1-0.3c0.2-0.1,0.4-0.3,0.6-0.4c0.9-0.4,2.3-1,3.3-1.4l0.1,0c0,0,0,0,0,0
	c21.6-8.2,42.3-19.8,61.3-35c6.7-5.3,13.1-11,19-16.9c26.9-26.6,46-58.5,57-92.7c11-34.1,14-70.4,8.6-105.9
	C968.1,342.7,940.6,388.6,898,422.4z"/>
<path d="M922,272.8C922,272.8,922,272.8,922,272.8c-0.9,1.4-1.9,2.8-3,4c-3.7,4.4-7.3,9-10.6,13.8c-1.1,1.6-2.2,3.2-3.3,4.9
	c-0.5,0.6-0.9,1.3-1.2,2c0,0.1-0.1,0.1-0.1,0.2c-0.5,0.9-1,1.7-1.6,2.6c-0.2-0.1-0.1,0,0,0c-9.9,16.7-16.4,34.6-19.8,52.7
	c0-11.4-1.1-22.7-3.4-33.8c-3.5-16.8-9.6-33-18.3-48c-2.1-3.6-4.3-7.1-6.6-10.5c-3.9-5.7-8.2-11.2-12.9-16.4
	c-6.7-7.5-12.4-16-16.4-25.2c-0.2-0.4-0.3-0.7-0.5-1.1c-0.3,3.2-0.4,6.5-0.5,9.7c-0.4,20.9,3.3,41.7,10.8,61.1
	c3.5,9.2,7.9,18,13.1,26.5c2.4,6.2,4.4,12.5,6,18.9c5.2,20.8,6.3,42.6,3,64.2c-2,12.8-5.5,25.4-10.7,37.7c1.2-2.1,2.4-4.2,3.7-6.2
	c7.6-12.3,16.5-23.3,26.4-32.9c5.3-4.8,12.4-12.1,19.4-18.4c3.4-2.4,6.6-4.8,9.8-7.5c0.1,0.1,0.2,0.1,0.3,0c0.2,0,0.4-0.2,0.6-0.5
	c0.1-0.1,0.2-0.3,0.3-0.4c0.5-0.5,1.3-1.2,1.8-1.7l0,0c0,0,0,0,0,0c12.2-10.6,23.1-23.1,32-37.6c3.2-5.1,6-10.3,8.5-15.6
	c11.3-23.9,16.3-49.5,15.4-74.6c-0.9-25.1-7.6-49.7-19.6-71.8C949.1,203.6,942,240.3,922,272.8z"/>
<path d="M890,153.2C890,153.2,890,153.2,890,153.2c-0.2,1.2-0.5,2.3-0.8,3.4c-1.2,3.8-2.2,7.8-3.1,11.8c-0.3,1.3-0.5,2.7-0.8,4.1
	c-0.2,0.5-0.2,1.1-0.3,1.6c0,0.1,0,0.1,0,0.2c-0.1,0.7-0.2,1.4-0.3,2.1c-0.1,0-0.1,0,0,0c-1.8,13.5-1.1,26.8,1.7,39.3
	c-3.1-7.4-6.9-14.3-11.5-20.8c-6.8-9.9-15.3-18.6-24.9-25.9c-2.3-1.7-4.7-3.4-7.1-5c-4.1-2.6-8.4-5-12.8-7
	c-6.4-3-12.4-6.9-17.5-11.8c-0.2-0.2-0.4-0.4-0.6-0.6c0.7,2.2,1.5,4.3,2.4,6.4c5.5,13.6,13.6,25.9,23.7,36.4
	c4.8,4.9,10,9.5,15.7,13.5c3.2,3.3,6.2,6.8,9,10.5c9.1,12,15.8,25.7,19.5,40.5c2.2,8.8,3.4,17.9,3.4,27.2c0.2-1.7,0.4-3.3,0.7-5
	c1.5-10,4.2-19.5,8-28.5c2.1-4.5,4.7-11.2,7.4-17.2c1.5-2.4,3-4.9,4.3-7.5c0.1,0,0.1,0,0.2-0.1c0.1-0.1,0.2-0.3,0.3-0.5
	c0-0.1,0.1-0.2,0.1-0.4c0.2-0.4,0.5-1.1,0.7-1.6l0,0c0,0,0,0,0,0c5-10.1,8.5-21.2,10.3-33c0.6-4.2,1-8.3,1.2-12.4
	c0.8-18.5-3-36.3-10.5-52.3c-7.4-15.9-18.5-29.9-32.3-40.9C888.5,101.2,894,126.8,890,153.2z"/>
<path d="M844.2,82C844.2,82,844.2,82,844.2,82c0.1,0.8,0.2,1.6,0.2,2.4c0,2.8,0.2,5.7,0.6,8.5c0.1,1,0.3,1.9,0.4,2.9
	c0,0.4,0.1,0.8,0.2,1.1c0,0,0,0.1,0,0.1c0.1,0.5,0.2,1,0.3,1.4c-0.1,0,0,0,0,0c1.8,9.3,5.2,18,9.9,25.7c-3.7-4.2-7.8-8-12.3-11.3
	c-6.7-5-14.3-9-22.3-11.6c-1.9-0.6-3.9-1.2-5.8-1.7c-3.3-0.8-6.7-1.4-10.1-1.8c-4.9-0.6-9.7-1.8-14.2-3.9c-0.2-0.1-0.4-0.2-0.5-0.3
	c1,1.3,2,2.5,3,3.7c6.7,7.8,14.8,14.2,23.8,18.9c4.3,2.2,8.8,4,13.4,5.4c2.9,1.5,5.7,3.2,8.3,5c8.7,5.9,16.2,13.6,22,22.5
	c3.4,5.3,6.3,11.1,8.3,17.3c-0.3-1.1-0.5-2.3-0.7-3.5c-1.2-7-1.5-13.9-1-20.7c0.4-3.5,0.6-8.5,1.1-13.1c0.5-2,0.9-3.9,1.2-5.9
	c0.1,0,0.1,0,0.1-0.1c0.1-0.1,0.1-0.2,0.1-0.4c0-0.1,0-0.2,0-0.3c0-0.3,0.1-0.9,0.1-1.2l0,0c0,0,0,0,0,0c1.1-7.8,0.9-16-0.5-24.2
	c-0.5-2.9-1.2-5.7-2-8.5c-3.6-12.4-10.1-23.4-18.6-32.4c-8.5-8.9-18.9-15.7-30.5-19.9C831.6,47.9,841,63.7,844.2,82z"/>
<path d="M803,50.3C803,50.3,803,50.3,803,50.3c0.3,0.5,0.5,1,0.7,1.6c0.7,1.8,1.5,3.7,2.4,5.5c0.3,0.6,0.6,1.2,0.9,1.8
	c0.1,0.3,0.2,0.5,0.4,0.7c0,0,0,0,0,0.1c0.2,0.3,0.3,0.6,0.5,0.9c-0.1,0,0,0,0,0c3.4,5.7,7.7,10.6,12.6,14.6
	c-3.4-1.9-7-3.4-10.8-4.5c-5.6-1.7-11.5-2.5-17.5-2.3c-1.4,0-2.8,0.1-4.3,0.3c-2.4,0.2-4.7,0.6-7.1,1.2c-3.4,0.8-6.8,1.1-10.3,0.8
	c-0.1,0-0.3,0-0.4,0c0.9,0.6,1.9,1.2,2.9,1.7c6.2,3.5,13.1,5.8,20.2,6.7c3.3,0.4,6.7,0.6,10.1,0.4c2.2,0.3,4.5,0.7,6.7,1.3
	c7.1,1.8,13.9,5.1,19.8,9.6c3.5,2.7,6.8,5.8,9.6,9.4c-0.4-0.7-0.9-1.4-1.3-2.1c-2.5-4.3-4.3-8.8-5.6-13.4c-0.6-2.4-1.6-5.7-2.4-8.9
	c-0.2-1.4-0.4-2.8-0.6-4.2c0,0,0.1,0,0.1-0.1c0-0.1,0-0.2,0-0.3c0-0.1,0-0.1-0.1-0.2c-0.1-0.2-0.2-0.6-0.2-0.8l0,0c0,0,0,0,0,0
	c-1.2-5.4-3.2-10.7-6.1-15.8c-1-1.8-2.1-3.5-3.3-5.1c-5.3-7.3-12.2-13-20-16.9c-7.7-3.8-16.2-5.8-24.8-5.8
	C786.6,30.8,796.5,39,803,50.3z"/>
</svg>
