<?xml version="1.0" encoding="utf-8"?>
<!-- Generator: Adobe Illustrator 21.0.0, SVG Export Plug-In . SVG Version: 6.00 Build 0)  -->
<svg version="1.1" id="Layer_1" xmlns="http://www.w3.org/2000/svg" xmlns:xlink="http://www.w3.org/1999/xlink" x="0px" y="0px"
	 viewBox="0 0 1000 1000" style="enable-background:new 0 0 1000 1000;" xml:space="preserve">
<style type="text/css">
	.st0{fill:#FFFFFF;}
</style>
<path class="st0" d="M650.2,781.4C650.1,781.4,650.1,781.4,650.2,781.4c-4.2,1.5-8.5,2.6-12.8,3.5c-15,2.9-30,6.6-44.9,11.1
	c-5,1.5-9.9,3.1-14.9,4.8c-2.1,0.4-4,1.2-5.9,2c-0.2,0.1-0.4,0.2-0.6,0.2c-2.5,0.9-5,1.8-7.4,2.8c-0.2-0.4-0.2-0.2,0,0
	c-48.3,18.3-91.3,44.5-128.1,76.3c18.9-23.4,35.3-48.7,48.7-75.3c20.4-40.3,34.4-83.8,41.1-128.7c1.6-10.7,2.8-21.6,3.6-32.5
	c1.3-18.2,1.4-36.5,0.3-54.9c-1.7-26.5,0.4-53.2,7.5-78.8c0.3-1,0.5-2,0.8-3c-5.9,6.2-11.5,12.7-17,19.3
	c-35.2,42.5-61.8,91.4-78.3,143.7c-7.7,24.7-13.3,50.1-16.4,76c-5.3,16.6-11.6,32.8-18.8,48.6c-23.4,51.4-57.1,98.2-99.7,137.2
	c-25.2,23.1-53.5,43.5-84.6,60.3c5.9-2.4,11.9-4.7,18-6.8c36.2-13,72.9-21.1,109.5-24.8c19-1.3,45.9-4.8,71-6.3
	c10.9,0.6,21.9,0.9,32.8,0.7c0.1,0.3,0.3,0.5,0.5,0.6c0.5,0.2,1.2,0.2,2,0c0.5-0.1,0.9-0.2,1.3-0.3c1.9-0.2,4.7-0.4,6.6-0.5l0.1,0
	l0,0c42.9-1.8,86.3-10,128.9-25.4c15-5.4,29.5-11.6,43.5-18.4c63.1-30.7,115.7-75.4,155.3-128.7c39.5-53.1,66.2-114.7,77.6-179.9
	C820.9,683.1,745.4,747.1,650.2,781.4z"/>
<path class="st0" d="M780.8,534C780.7,534,780.7,534,780.8,534c-2.4,2-4.9,3.7-7.7,5.3c-9.2,5.4-18.2,11.3-26.9,17.9
	c-2.9,2.2-5.8,4.4-8.6,6.7c-1.3,0.7-2.4,1.7-3.4,2.7c-0.1,0.1-0.2,0.2-0.4,0.3c-1.4,1.2-2.8,2.4-4.2,3.5c-0.3-0.2-0.1-0.1,0,0
	c-27.3,23.5-49.4,50.8-65.9,80.5c6.8-19.9,11.5-40.3,13.9-61.1c3.7-31.4,2.4-63.3-4-94.5c-1.6-7.4-3.3-14.8-5.5-22.2
	c-3.5-12.3-7.9-24.3-13.1-36.2c-7.5-17.1-12.5-35.1-14.1-53.6c-0.1-0.7-0.2-1.5-0.2-2.1c-2.4,5.5-4.6,11.1-6.6,16.7
	c-13,36.3-18.7,74.7-16.8,113c0.8,18,3.3,36.2,7.5,53.9c0.5,12.2,0.3,24.3-0.6,36.4c-3,39.4-13.9,78.2-32.6,113.8
	c-11,21.2-24.7,41.2-41.1,59.6c3.3-3,6.7-5.9,10.2-8.8c20.7-17.1,42.8-31.1,66-42.1c12.1-5.3,29-13.9,45.1-20.9
	c7.4-2.2,14.6-4.6,21.8-7.3c0.1,0.1,0.3,0.2,0.5,0.2c0.4,0,0.8-0.2,1.4-0.5c0.2-0.2,0.5-0.4,0.8-0.6c1.2-0.5,3-1.4,4.2-1.9l0.1,0
	l0,0c27.8-11.3,54.4-27,78.7-47c8.5-7.1,16.7-14.5,24.2-22.3c34.1-35.1,58-76.9,71.2-121.4c13.2-44.3,15.9-91.2,7.7-136.7
	C869.4,429,835.1,489,780.8,534z"/>
<path class="st0" d="M814.9,314L814.9,314c-1.2,1.9-2.5,3.6-3.8,5.1c-4.9,5.6-9.5,11.6-13.9,17.8c-1.5,2.1-2.8,4.2-4.3,6.3
	c-0.7,0.7-1.1,1.7-1.6,2.5c-0.1,0.1-0.1,0.1-0.2,0.3c-0.7,1.1-1.3,2.2-2,3.3c-0.2-0.1-0.1-0.1,0,0c-12.8,21.6-21.4,44.6-25.7,67.9
	c0-14.7-1.5-29.3-4.5-43.6c-4.5-21.6-12.6-42.5-23.9-61.8c-2.7-4.6-5.6-9.1-8.7-13.5c-5.1-7.4-10.7-14.4-16.8-21.1
	c-8.8-9.7-16.2-20.6-21.4-32.5c-0.2-0.5-0.4-0.9-0.6-1.4c-0.3,4.1-0.5,8.3-0.5,12.5c-0.5,27,4.4,53.7,14.2,78.7
	c4.6,11.8,10.3,23.3,17.1,34.1c3.1,7.9,5.7,16.1,7.8,24.3c6.9,26.8,8.4,54.9,4,82.7c-2.6,16.5-7.1,32.8-13.9,48.6
	c1.5-2.7,3.2-5.4,4.8-8.1c9.9-15.9,21.4-30.1,34.3-42.5c6.8-6.2,16.2-15.7,25.2-23.8c4.4-3,8.7-6.3,12.8-9.6c0.1,0.1,0.2,0.1,0.4,0
	c0.3-0.1,0.6-0.3,0.8-0.6c0.1-0.1,0.2-0.4,0.4-0.5c0.6-0.6,1.7-1.6,2.4-2.2l0.1,0l0,0c16-13.6,30.1-29.8,41.6-48.6
	c4.1-6.6,7.8-13.4,11-20.2c14.8-30.9,21.2-63.8,19.9-96.2c-1.2-32.3-10-64-25.7-92.4C850.1,224.8,840.8,272.2,814.9,314z"/>
<path class="st0" d="M788.8,179.8L788.8,179.8c-0.3,1.5-0.8,3-1.3,4.3c-1.8,4.9-3.4,9.9-4.8,15c-0.4,1.7-0.9,3.4-1.3,5.2
	c-0.2,0.7-0.4,1.4-0.4,2.1c0,0.1-0.1,0.1,0,0.2c-0.1,0.9-0.3,1.7-0.6,2.7c-0.2,0-0.1,0,0,0c-3.3,17.2-3.3,34.4-0.5,50.8
	c-3.6-9.7-8-18.9-13.5-27.6c-8.2-13.2-18.5-25-30.7-35c-2.9-2.4-5.9-4.7-8.9-6.9c-5.1-3.6-10.5-7-16.2-9.9
	c-8.1-4.3-15.6-9.7-21.9-16.3c-0.3-0.3-0.5-0.5-0.8-0.8c0.7,2.8,1.7,5.6,2.6,8.4c6.2,17.8,15.8,34.3,28.3,48.5
	c5.9,6.7,12.4,12.8,19.5,18.4c4,4.5,7.7,9.2,11,14.2c10.9,16,18.7,34.2,22.6,53.5c2.3,11.5,3.2,23.2,2.6,35.3
	c0.4-2.2,0.7-4.3,1.2-6.4c2.7-12.8,6.9-24.8,12.4-36c3-5.7,6.9-14.1,10.9-21.6c2.2-3.1,4.2-6.1,6.1-9.4c0.1,0.1,0.2,0,0.3-0.1
	c0.2-0.1,0.3-0.3,0.4-0.6c0.1-0.1,0.1-0.3,0.1-0.4c0.3-0.6,0.7-1.4,1-2l0,0l0,0c7.2-12.8,12.6-26.7,15.7-41.7
	c1.2-5.3,1.9-10.6,2.4-15.8c2.2-23.7-1.5-47-10.1-68c-8.6-21-22-39.8-39.2-54.8C790.4,112.7,795.8,146,788.8,179.8z"/>
<path class="st0" d="M724,88.2L724,88.2c0.2,1.1,0.3,2.1,0.4,3.1c0.2,3.6,0.5,7.3,1,11c0.1,1.2,0.4,2.4,0.6,3.7c0,0.5,0.2,1,0.2,1.4
	c0,0.1,0,0.1,0.1,0.2c0.1,0.6,0.3,1.2,0.4,1.9c-0.1,0-0.1,0,0,0c2.7,12,7.4,23.1,13.7,32.8c-5-5.3-10.4-10-16.3-14.1
	c-8.9-6.3-18.9-11-29.4-14.3c-2.5-0.7-5.1-1.4-7.6-2c-4.3-0.9-8.8-1.6-13.2-2c-6.4-0.6-12.8-2-18.7-4.6c-0.2-0.1-0.5-0.2-0.7-0.3
	c1.3,1.6,2.6,3.2,4.1,4.7c9,9.8,19.7,17.8,31.7,23.5c5.6,2.7,11.5,5,17.7,6.6c3.8,1.8,7.4,3.9,11,6.1c11.5,7.4,21.6,16.9,29.4,28.3
	c4.6,6.8,8.5,14.1,11.4,22c-0.4-1.5-0.7-2.9-1-4.5c-1.8-8.9-2.5-17.8-2-26.6c0.4-4.5,0.5-10.9,1-16.9c0.5-2.5,1-5.1,1.3-7.7
	c0.1,0,0.1,0,0.1-0.1c0.1-0.1,0.1-0.3,0.1-0.5c0-0.1,0-0.2,0-0.4c0-0.4,0.1-1.1,0.1-1.6l0,0l0,0c1.1-10.1,0.7-20.6-1.5-31.2
	c-0.8-3.7-1.7-7.3-2.8-10.9c-5.1-15.9-13.9-29.8-25.3-41.1c-11.3-11.2-25.2-19.6-40.4-24.7C706.5,44.6,719.2,64.6,724,88.2z"/>
<path class="st0" d="M662.6,42L662.6,42c0.3,0.6,0.7,1.3,0.9,2c0.9,2.4,1.9,4.8,3.2,7c0.4,0.8,0.8,1.5,1.2,2.3
	c0.1,0.3,0.3,0.6,0.5,0.9l0,0.1c0.2,0.4,0.5,0.8,0.7,1.1c-0.1,0,0,0,0,0c4.4,7.3,10.1,13.7,16.5,18.7c-4.5-2.4-9.2-4.4-14.1-5.8
	c-7.3-2.2-15.1-3.2-22.7-3c-1.8,0.1-3.7,0.2-5.5,0.3c-3.1,0.3-6.2,0.9-9.2,1.6c-4.4,1-8.9,1.5-13.4,1.1c-0.2,0-0.4,0-0.5-0.1
	c1.3,0.8,2.5,1.5,3.7,2.2c8.2,4.5,17.1,7.5,26.3,8.7c4.4,0.5,8.8,0.7,13.2,0.4c3,0.4,5.9,1,8.7,1.7c9.3,2.3,18.1,6.5,25.9,12.3
	c4.6,3.4,8.9,7.5,12.5,12.1c-0.6-0.8-1.1-1.8-1.7-2.8c-3.2-5.6-5.6-11.3-7.3-17.2c-0.7-3.1-2.1-7.4-3.1-11.4
	c-0.2-1.8-0.4-3.6-0.8-5.4c0.1,0,0.1,0,0.1-0.1c0.1-0.1,0-0.2,0-0.4c0-0.1-0.1-0.2-0.1-0.3c-0.1-0.3-0.2-0.8-0.3-1l0,0l0,0
	c-1.5-7-4.2-13.8-8-20.4c-1.3-2.3-2.8-4.5-4.4-6.6c-7-9.4-16-16.7-26.1-21.7c-10.1-4.9-21.1-7.5-32.4-7.5
	C641.1,17,654.1,27.5,662.6,42z"/>
<path class="st0" d="M617.3,27.9L617.3,27.9c0.4,0.3,0.7,0.7,1.1,1.1c1.2,1.3,2.4,2.7,3.8,3.9c0.4,0.4,0.9,0.8,1.3,1.2
	c0.2,0.2,0.3,0.4,0.6,0.5c0,0,0,0,0,0.1c0.3,0.2,0.4,0.4,0.7,0.6c-0.1,0,0,0,0,0c4.7,3.8,9.9,6.6,15.4,8.5
	c-3.5-0.6-7.1-0.7-10.7-0.5c-5.3,0.3-10.6,1.4-15.7,3.4c-1.2,0.4-2.4,0.9-3.6,1.6c-2,0.9-3.8,2-5.7,3.2c-2.7,1.7-5.5,3-8.6,3.9
	c-0.1,0-0.3,0.1-0.3,0.1c1,0.2,2,0.4,3,0.5c6.4,1.1,13,0.9,19.4-0.6c3-0.7,5.9-1.6,8.8-2.8c2-0.4,4.1-0.8,6.1-1c6.6-0.7,13.5,0,20,2
	c3.8,1.2,7.6,2.8,11.2,5c-0.6-0.5-1.2-0.9-1.8-1.4c-3.5-2.9-6.4-6.1-9-9.6c-1.3-1.8-3.1-4.3-4.8-6.8c-0.6-1.1-1.2-2.3-1.8-3.4
	c0,0,0.1,0,0.1-0.1c0-0.1-0.1-0.2-0.1-0.3c0-0.1,0-0.1-0.1-0.1c-0.1-0.1-0.4-0.4-0.4-0.6l0,0l0,0c-2.7-4.2-6.1-8.1-10.2-11.5
	c-1.4-1.2-2.9-2.3-4.4-3.3c-6.8-4.6-14.5-7.3-22.4-8.2c-7.8-0.8-15.7,0.1-23.1,2.7C597.2,16.4,608.3,20.3,617.3,27.9z"/>
</svg>
