<?xml version="1.0" encoding="iso-8859-1"?>
<!-- Generator: Adobe Illustrator 21.0.0, SVG Export Plug-In . SVG Version: 6.00 Build 0)  -->
<svg xmlns="http://www.w3.org/2000/svg" xmlns:xlink="http://www.w3.org/1999/xlink" version="1.1" id="Capa_1" x="0px" y="0px" viewBox="0 0 512 512" style="enable-background:new 0 0 512 512;" xml:space="preserve" width="512" height="512">
<path d="M473.954,162.693l-9.517-9.516c-18.426-18.426-42.126-28.591-66.392-30.286V0H116.833L38.046,78.787V512h360V257.115  L473.954,162.693z M307.305,322.108l-49.856,2.701l88.195-88.195l-21.213-21.213l-88.194,88.194l2.702-49.855l105.373-84.712  c26.022-20.92,62.084-21.642,88.646-3.222L307.305,322.108z M118.046,41.213V80H79.259l19.393-19.393L118.046,41.213z M368.046,482  h-300V110h80V30h220v95.135c-15.123,3.386-29.697,10.196-42.531,20.513l-115.808,93.1l-4.752,87.693l4.218,4.218l-33.234,33.234  l21.213,21.213l33.234-33.234l4.218,4.218l87.693-4.752l45.749-56.907V482z"/>















</svg>
