<svg height="496pt" viewBox="0 0 496 496" width="496pt" xmlns="http://www.w3.org/2000/svg"><path d="m488 0h-320c-4.425781 0-8 3.574219-8 8v24h-24c-4.425781 0-8 3.574219-8 8v280h-128v16h176v48h-176v16h128v88c0 4.425781 3.574219 8 8 8h320c4.425781 0 8-3.574219 8-8v-24h24c4.425781 0 8-3.574219 8-8v-448c0-4.425781-3.574219-8-8-8zm-40 480h-304v-80h40c4.425781 0 8-3.574219 8-8v-8h16v8c0 4.425781 3.574219 8 8 8h24v16h-8c-4.425781 0-8 3.574219-8 8v32c0 4.425781 3.574219 8 8 8h144c4.425781 0 8-3.574219 8-8v-32c0-4.425781-3.574219-8-8-8h-8v-112h8c4.425781 0 8-3.574219 8-8v-32c0-4.425781-3.574219-8-8-8h-144c-4.425781 0-8 3.574219-8 8v32c0 4.425781 3.574219 8 8 8h8v16h-24c-4.425781 0-8 3.574219-8 8v8h-16v-8c0-4.425781-3.574219-8-8-8h-40v-272h240v56c0 4.425781 3.574219 8 8 8h56zm-256-128h16v16h-16zm48-64v-16h128v16zm112 16v112h-96v-112zm16 128v16h-128v-16zm-128-48h-16v-48h16zm196.6875-288h-36.6875v-36.6875zm43.3125 352h-16v-344c0-2.214844-.902344-4.214844-2.351562-5.664062l-63.976563-63.976563c-1.457031-1.457031-3.457031-2.359375-5.671875-2.359375h-216v-16h304zm0 0"/><path d="m240 81.472656v-17.472656h-16v17.472656c-9.289062 3.3125-16 12.113282-16 22.527344v16c0 13.230469 10.769531 24 24 24 4.414062 0 8 3.585938 8 8v16c0 4.414062-3.585938 8-8 8s-8-3.585938-8-8v-8h-16v8c0 10.414062 6.710938 19.214844 16 22.527344v17.472656h16v-17.472656c9.289062-3.3125 16-12.113282 16-22.527344v-16c0-13.230469-10.769531-24-24-24-4.414062 0-8-3.585938-8-8v-16c0-4.414062 3.585938-8 8-8s8 3.585938 8 8v8h16v-8c0-10.414062-6.710938-19.214844-16-22.527344zm0 0"/><path d="m160 128h16v16h-16zm0 0"/><path d="m288 128h16v16h-16zm0 0"/><path d="m288 160h144v16h-144zm0 0"/><path d="m288 192h144v16h-144zm0 0"/><path d="m288 224h144v16h-144zm0 0"/></svg>